<?xml version="1.0" encoding="utf-8"?>
<!-- Generator: Adobe Illustrator 23.0.1, SVG Export Plug-In . SVG Version: 6.00 Build 0)  -->
<svg version="1.1" id="Слой_1" xmlns="http://www.w3.org/2000/svg" xmlns:xlink="http://www.w3.org/1999/xlink"
	 viewBox="0 0 55 40.4" style="enable-background:new 0 0 55 40.4;" xml:space="preserve">
<title>teg</title>
<g>
	<path d="M17.5,8.7L6.1,20.3c-0.4,0.4-0.4,1.1,0,1.5l11.5,11.7c0.4,0.4,0.4,1.1,0,1.5l-1.4,1.4c-0.4,0.4-1.1,0.4-1.5,0L0.3,21.8
		c-0.4-0.4-0.4-1.1,0-1.5L14.7,5.7c0.4-0.4,1.1-0.4,1.5,0l1.4,1.4C17.9,7.6,17.9,8.2,17.5,8.7z"/>
	<path d="M37.5,33.5l11.5-11.7c0.4-0.4,0.4-1.1,0-1.5L37.5,8.7c-0.4-0.4-0.4-1.1,0-1.5l1.4-1.4c0.4-0.4,1.1-0.4,1.5,0l14.4,14.6
		c0.4,0.4,0.4,1.1,0,1.5L40.3,36.4c-0.4,0.4-1.1,0.4-1.5,0L37.5,35C37.1,34.6,37.1,33.9,37.5,33.5z"/>
	<path d="M35.1,2.5L24.6,39.6c-0.2,0.6-0.7,0.9-1.3,0.7c0,0,0,0,0,0l-2.1-0.7c-0.5-0.2-0.8-0.8-0.7-1.3L30.9,1.2
		c0.2-0.6,0.7-0.9,1.3-0.7c0,0,0,0,0,0l2.1,0.7C34.9,1.3,35.2,1.9,35.1,2.5z"/>
</g>
</svg>
